<svg width="214" height="147" viewBox="0 0 214 147" fill="none" xmlns="http://www.w3.org/2000/svg">
<rect y="0.663086" width="160.902" height="73.4787" rx="10" fill="white"/>
<line x1="105.552" y1="95.8838" x2="148.459" y2="144.691" stroke="white" stroke-width="4"/>
<line x1="146.958" y1="144.011" x2="214" y2="144.025" stroke="white" stroke-width="4"/>
<path d="M32.7987 44.0531H31.4987C30.9587 44.0531 30.6987 43.7931 30.6987 43.2531V31.0531C30.6987 30.5131 30.9587 30.2531 31.4987 30.2531H34.6587C38.0587 30.2531 40.5787 31.6331 40.5787 35.3731C40.5787 38.7731 37.8187 40.2131 34.6187 40.5331L33.5987 40.6331V43.2531C33.5987 43.7931 33.3387 44.0531 32.7987 44.0531ZM34.7387 33.2531H33.5987V37.6331L34.6987 37.5331C36.2587 37.3931 37.6787 36.7131 37.6787 35.3731C37.6787 33.7331 36.2787 33.2531 34.7387 33.2531ZM48.3822 44.0931C44.2822 44.0931 41.5822 41.2931 41.5822 36.9531C41.5822 32.6531 44.2822 29.8131 48.4222 29.8131C52.5022 29.8131 55.1822 32.6531 55.2222 36.9531C55.1822 41.2931 52.4822 44.0931 48.3822 44.0931ZM48.4222 41.0931C50.9622 41.0931 52.2822 39.3531 52.3222 36.9531C52.2822 34.5931 50.9422 32.8131 48.4022 32.8131C45.8222 32.8131 44.4822 34.5931 44.4822 36.9531C44.4822 39.3531 45.8222 41.0931 48.4222 41.0931ZM64.5078 43.6331L57.7878 43.2531C57.2478 43.2531 56.9878 43.0131 56.9878 42.4731V31.0531C56.9878 30.5131 57.2478 30.2531 57.7878 30.2531H59.0878C59.6278 30.2531 59.8878 30.5131 59.8878 31.0531V40.5731L64.4878 40.8331C65.0278 40.8731 65.2878 41.0931 65.2878 41.6331V42.8531C65.2878 43.3731 65.0278 43.6531 64.5078 43.6331ZM68.9329 43.4331C68.6729 44.2731 68.3729 44.3731 67.6729 44.2331L66.4929 43.9931C65.7529 43.8331 65.6929 43.5531 65.9329 42.8331L69.7929 31.0531C70.0329 30.3531 70.2329 30.2531 70.7529 30.2531H72.4729C72.9929 30.2531 72.8929 30.3531 73.2329 31.0531L78.7129 42.4731C79.0529 43.1931 78.8929 43.4931 78.1529 43.6331L77.0729 43.8331C76.3129 43.9731 76.1129 43.8931 75.7129 43.0331L74.8329 41.1131H69.6529L68.9329 43.4331ZM73.6929 38.6131L71.7329 34.3331L70.4129 38.6131H73.6929ZM88.9486 44.2331C88.2486 44.3931 88.1686 44.2731 87.6886 43.4331L85.5886 39.8131C85.1686 39.8731 84.7286 39.8931 84.2486 39.8931H83.1886V42.8531C83.1886 43.3931 82.9286 43.6531 82.3886 43.6531H81.0886C80.5486 43.6531 80.2886 43.3931 80.2886 42.8531V31.0531C80.2886 30.5131 80.5486 30.2531 81.0886 30.2531H84.2486C88.0286 30.2531 90.1686 31.8131 90.1686 35.0731C90.1686 36.8931 89.5086 38.1731 88.2486 38.9731L90.3886 42.8731C90.7286 43.5131 90.5686 43.8731 89.8286 44.0331L88.9486 44.2331ZM84.3286 33.2531H83.1886V36.8931H84.3286C86.3886 36.8931 87.2686 36.2131 87.2686 35.0731C87.2686 33.9331 86.3886 33.2531 84.3286 33.2531ZM98.3236 44.0931C94.2236 44.0931 91.5236 41.2931 91.5236 36.9531C91.5236 32.6531 94.2236 29.8131 98.3636 29.8131C102.444 29.8131 105.124 32.6531 105.164 36.9531C105.124 41.2931 102.424 44.0931 98.3236 44.0931ZM98.3636 41.0931C100.904 41.0931 102.224 39.3531 102.264 36.9531C102.224 34.5931 100.884 32.8131 98.3436 32.8131C95.7636 32.8131 94.4236 34.5931 94.4236 36.9531C94.4236 39.3531 95.7636 41.0931 98.3636 41.0931ZM109.829 43.2531C109.829 43.7931 109.569 44.0531 109.029 44.0531H107.729C107.189 44.0531 106.929 43.7931 106.929 43.2531V30.6531C106.929 30.1131 107.189 29.8531 107.729 29.8531H109.029C109.569 29.8531 109.829 30.1131 109.829 30.6531V43.2531ZM113.022 43.6531C112.482 43.7131 112.222 43.3931 112.222 42.8531V31.0531C112.222 30.5131 112.482 30.2531 113.022 30.2531H116.182C120.382 30.2531 123.502 31.9931 123.502 36.6531C123.502 41.0531 120.102 42.9531 116.142 43.3331L114.382 43.5131H114.322L113.022 43.6531ZM116.262 33.2531H115.122V40.4331L116.222 40.3331C118.542 40.0931 120.602 38.9331 120.602 36.6531C120.602 34.0331 118.542 33.2531 116.262 33.2531Z" fill="black"/>
</svg>
