<svg width="30" height="25" viewBox="0 0 30 25" fill="none" xmlns="http://www.w3.org/2000/svg">
<path d="M30 3.32353C28.8958 3.81765 27.7055 4.14235 26.4723 4.29765C27.7342 3.54941 28.7094 2.36353 29.1683 0.937647C27.978 1.64353 26.6587 2.13765 25.2677 2.42C24.1348 1.20588 22.543 0.5 20.7361 0.5C17.3662 0.5 14.6128 3.21059 14.6128 6.55647C14.6128 7.03647 14.6702 7.50235 14.7706 7.94C9.66539 7.68588 5.1195 5.27176 2.09369 1.61529C1.5631 2.50471 1.26195 3.54941 1.26195 4.65059C1.26195 6.75412 2.33748 8.61765 4.00096 9.67647C2.98279 9.67647 2.03633 9.39412 1.20459 8.97059V9.01294C1.20459 11.9494 3.32696 14.4059 6.13767 14.9565C5.23527 15.1996 4.2879 15.2334 3.36998 15.0553C3.75947 16.2588 4.52228 17.3119 5.55117 18.0665C6.58006 18.8211 7.8233 19.2393 9.10612 19.2624C6.93159 20.9571 4.23613 21.8732 1.46272 21.86C0.975143 21.86 0.487572 21.8318 0 21.7753C2.72467 23.4976 5.96558 24.5 9.43595 24.5C20.7361 24.5 26.9455 15.2671 26.9455 7.26235C26.9455 6.99412 26.9455 6.74 26.9312 6.47176C28.1358 5.62471 29.1683 4.55176 30 3.32353Z" fill="white"/>
</svg>
