<svg width="21" height="25" viewBox="0 0 21 25" fill="none" xmlns="http://www.w3.org/2000/svg">
<path d="M16.6607 4.26C15.7452 3.2195 15.2407 1.88324 15.2411 0.5H11.1027V17.0333C11.0708 17.928 10.6913 18.7755 10.0443 19.3973C9.39731 20.019 8.53319 20.3665 7.63393 20.3667C5.73214 20.3667 4.15179 18.82 4.15179 16.9C4.15179 14.6067 6.375 12.8867 8.66518 13.5933V9.38C4.04464 8.76667 0 12.34 0 16.9C0 21.34 3.69643 24.5 7.62054 24.5C11.8259 24.5 15.2411 21.1 15.2411 16.9V8.51333C16.9192 9.71313 18.934 10.3569 21 10.3533V6.23333C21 6.23333 18.4821 6.35333 16.6607 4.26Z" fill="white"/>
</svg>
