<svg width="24" height="25" viewBox="0 0 24 25" fill="none" xmlns="http://www.w3.org/2000/svg">
<path d="M13.2336 0.501476C14.1092 0.498116 14.9849 0.506917 15.8603 0.527876L16.0931 0.536275C16.3619 0.545875 16.627 0.557875 16.9474 0.572274C18.2242 0.632272 19.0953 0.833865 19.8597 1.13026C20.6516 1.43504 21.3188 1.84783 21.986 2.51501C22.596 3.11451 23.0681 3.8397 23.3695 4.64014C23.6659 5.40451 23.8675 6.27688 23.9275 7.55364C23.9419 7.87283 23.9539 8.13922 23.9635 8.40801L23.9707 8.6408C23.992 9.5158 24.0012 10.3911 23.9983 11.2663L23.9995 12.1615V13.7334C24.0024 14.6091 23.9932 15.4847 23.9719 16.3601L23.9647 16.5929C23.9551 16.8617 23.9431 17.1269 23.9287 17.4473C23.8687 18.7241 23.6647 19.5952 23.3695 20.3596C23.0691 21.1609 22.5968 21.8867 21.986 22.4859C21.386 23.0959 20.6604 23.568 19.8597 23.8695C19.0953 24.1659 18.2242 24.3675 16.9474 24.4275C16.627 24.4419 16.3619 24.4539 16.0931 24.4635L15.8603 24.4707C14.9849 24.492 14.1093 24.5012 13.2336 24.4983L12.3385 24.4995H10.7677C9.8921 24.5024 9.01646 24.4932 8.14108 24.4719L7.90829 24.4647C7.62343 24.4543 7.33864 24.4423 7.05393 24.4287C5.7772 24.3687 4.90604 24.1647 4.14048 23.8695C3.33974 23.5687 2.61444 23.0965 2.01539 22.4859C1.40467 21.8863 0.932114 21.1606 0.63066 20.3596C0.334275 19.5952 0.132686 18.7241 0.0726886 17.4473C0.0593248 17.1626 0.0473253 16.8778 0.0366905 16.5929L0.0306909 16.3601C0.00856838 15.4847 -0.00143218 14.6091 0.000692365 13.7334V11.2663C-0.00265662 10.3911 0.00614386 9.51581 0.0270911 8.6408L0.0354906 8.40801C0.0450901 8.13922 0.0570895 7.87283 0.0714887 7.55364C0.131486 6.27568 0.333075 5.40571 0.62946 4.64014C0.931092 3.83931 1.40458 3.11432 2.01659 2.51621C2.61523 1.90513 3.34007 1.43213 4.14048 1.13026C4.90604 0.833865 5.776 0.632272 7.05393 0.572274L7.90829 0.536275L8.14108 0.530276C9.01605 0.508164 9.89129 0.498163 10.7665 0.500277L13.2336 0.501476ZM12.0001 6.50127C11.2051 6.49003 10.4159 6.6369 9.67817 6.93334C8.94047 7.22978 8.26904 7.66989 7.70291 8.22808C7.13678 8.78627 6.68723 9.45142 6.38039 10.1849C6.07355 10.9183 5.91554 11.7054 5.91554 12.5005C5.91554 13.2955 6.07355 14.0826 6.38039 14.8161C6.68723 15.5495 7.13678 16.2147 7.70291 16.7729C8.26904 17.331 8.94047 17.7712 9.67817 18.0676C10.4159 18.364 11.2051 18.5109 12.0001 18.4997C13.5913 18.4997 15.1173 17.8675 16.2425 16.7424C17.3677 15.6172 17.9998 14.0911 17.9998 12.4999C17.9998 10.9086 17.3677 9.38255 16.2425 8.25737C15.1173 7.13219 13.5913 6.50127 12.0001 6.50127ZM12.0001 8.90119C12.4783 8.89238 12.9534 8.97894 13.3978 9.15583C13.8421 9.33272 14.2468 9.59638 14.5881 9.93141C14.9294 10.2664 15.2005 10.6661 15.3856 11.1071C15.5707 11.5481 15.6661 12.0216 15.6662 12.4999C15.6663 12.9781 15.5711 13.4516 15.3861 13.8927C15.2011 14.3337 14.9301 14.7335 14.5889 15.0687C14.2477 15.4038 13.8432 15.6676 13.3989 15.8446C12.9546 16.0217 12.4795 16.1084 12.0013 16.0997C11.0465 16.0997 10.1309 15.7205 9.45582 15.0454C8.78073 14.3703 8.40146 13.4546 8.40146 12.4999C8.40146 11.5451 8.78073 10.6295 9.45582 9.95437C10.1309 9.27926 11.0465 8.89999 12.0013 8.89999L12.0001 8.90119ZM18.2998 4.70133C17.9126 4.71683 17.5465 4.88151 17.2781 5.16088C17.0097 5.44026 16.8598 5.81266 16.8598 6.20008C16.8598 6.58751 17.0097 6.95991 17.2781 7.23928C17.5465 7.51866 17.9126 7.68334 18.2998 7.69883C18.6976 7.69883 19.0791 7.5408 19.3604 7.25951C19.6417 6.97821 19.7997 6.59669 19.7997 6.19888C19.7997 5.80107 19.6417 5.41955 19.3604 5.13826C19.0791 4.85696 18.6976 4.69893 18.2998 4.69893V4.70133Z" fill="white"/>
</svg>
